<?xml version="1.0" encoding="UTF-8"?>
<svg width="24px" height="24px" viewBox="0 0 24 24" version="1.1" xmlns="http://www.w3.org/2000/svg" xmlns:xlink="http://www.w3.org/1999/xlink">
    <title>评论</title>
    <g id="页面-1" stroke="none" stroke-width="1" fill="none" fill-rule="evenodd">
        <g id="个人主详情" transform="translate(-300, -519)" fill="#666666" fill-rule="nonzero">
            <g id="编组-2" transform="translate(300, 519)">
                <g id="编组" transform="translate(1, 2)">
                    <path d="M11.013002,20 C10.6005278,20 10.1834706,19.9791673 9.76412186,19.9375018 C5.10545526,19.4770988 0.673649443,15.5188824 0.0893110343,11.2960905 C-0.341495322,8.1815992 0.799683217,5.13168932 3.22182321,2.92967105 C5.64167168,0.727652781 8.99875312,-0.311899836 12.4245803,0.0818385302 C17.0626232,0.613072834 21.4142257,4.63587064 21.9298184,8.86491235 C22.2070927,11.1460949 21.6594186,13.3564463 20.3463759,15.2751396 C20.6236502,16.1938625 21.4004765,18.6292072 21.4004765,18.6292072 C21.4738053,18.8625336 21.402768,19.1146095 21.2148631,19.2854378 C21.0269582,19.4562661 20.7496839,19.5229308 20.4930334,19.4541828 C20.4930334,19.4541828 17.8073682,18.7479537 16.8151387,18.489628 C15.0575404,19.4875151 13.0753728,20 11.013002,20 Z M11.0061274,1.33388487 C8.47399432,1.33388487 6.06560346,2.22969173 4.25759168,3.87130989 C2.15855646,5.77958684 1.16861845,8.425342 1.54442825,11.1294288 C2.04168878,14.7230726 5.95790188,18.2208859 9.92452848,18.612541 C12.1656381,18.8354511 14.3311275,18.3687982 16.1918444,17.2688307 C16.4347458,17.1250849 16.7395184,17.0855028 17.0259588,17.1584173 C17.4682228,17.2729972 18.673564,17.5896546 19.6222545,17.8396472 C19.3472718,16.9709228 18.9989602,15.8626222 18.875218,15.4438846 C18.8018892,15.1918087 18.8500112,14.9230667 19.0081263,14.7043231 C20.211176,13.016873 20.7176026,11.0481812 20.4701181,9.01282464 C20.0347287,5.41084774 16.1872613,1.85678609 12.2412584,1.40471611 C11.8287842,1.35680086 11.4140185,1.33388487 11.0061274,1.33388487 L11.0061274,1.33388487 Z M20.2865709,15.4568021 C20.2865709,15.4668021 20.2755709,15.4668021 20.2755709,15.4768021 C20.2865709,15.4768021 20.2865709,15.4668021 20.2865709,15.4568021 Z" id="形状"></path>
                    <path d="M6.6,11 C5.99270833,11 5.5,10.5520833 5.5,10 C5.5,9.44791667 5.99270833,9 6.6,9 C7.20729167,9 7.7,9.44791667 7.7,10 C7.7,10.5520833 7.205,11 6.6,11 Z M11,11 C10.3927083,11 9.9,10.5520833 9.9,10 C9.9,9.44791667 10.3927083,9 11,9 C11.6072917,9 12.1,9.44791667 12.1,10 C12.1,10.5520833 11.605,11 11,11 Z M15.4,11 C14.7927083,11 14.3,10.5520833 14.3,10 C14.3,9.44791667 14.7927083,9 15.4,9 C16.0072917,9 16.5,9.44791667 16.5,10 C16.5,10.5520833 16.005,11 15.4,11 Z" id="形状"></path>
                </g>
            </g>
        </g>
    </g>
</svg>