<?xml version="1.0" encoding="UTF-8"?>
<svg width="24px" height="24px" viewBox="0 0 24 24" version="1.1" xmlns="http://www.w3.org/2000/svg" xmlns:xlink="http://www.w3.org/1999/xlink">
    <title>兜圈圈-橙</title>
    <g id="页面-1" stroke="none" stroke-width="1" fill="none" fill-rule="evenodd">
        <g id="主页" transform="translate(-269, -725)" fill-rule="nonzero">
            <g id="兜圈圈-橙" transform="translate(269, 725)">
                <path d="M12,0 C18.6271872,0 24,5.37280001 24,12 C24.003568,15.0493375 22.8418599,17.9848037 20.7525191,20.2058667 L23.0335842,22.8682667 C23.4138506,23.3136 23.0975841,24 22.5119845,24 L12,24 C5.37279631,24 0,18.6277333 0,12 C0,5.37280001 5.37279631,0 12,0 Z M12.2886742,5.76 C8.68297294,5.76 5.76,8.68297495 5.76,12.288 C5.76,15.8937037 8.68297291,18.816 12.2886742,18.816 C15.8939865,18.816 18.8166697,15.8933148 18.8166697,12.288 C18.8166697,8.68268515 15.8939865,5.76 12.2886742,5.76 Z" id="形状结合" fill="#FA6402"></path>
                <polygon id="路径" fill="#EEC8A1" points="7.68 12.735163 12.2572454 17.3124084 16.8344909 12.735163 12.2572454 8.16"></polygon>
            </g>
        </g>
    </g>
</svg>