<?xml version="1.0" encoding="UTF-8"?>
<svg width="24px" height="24px" viewBox="0 0 24 24" version="1.1" xmlns="http://www.w3.org/2000/svg" xmlns:xlink="http://www.w3.org/1999/xlink">
    <title>点赞-红</title>
    <g id="页面-1" stroke="none" stroke-width="1" fill="none" fill-rule="evenodd">
        <g id="个人主详情" transform="translate(-236, -520)" fill="#FF5253" fill-rule="nonzero">
            <g id="编组-3" transform="translate(236, 520)">
                <g id="编组" transform="translate(1, 2)">
                    <path d="M21.9287475,5.66906173 C21.4719433,2.29760742 18.5963579,0 15.548989,0 C14.6147898,0 13.6643347,0.216073418 12.7625969,0.68327947 C12.1295987,1.01115426 11.5621282,1.47525543 10.9300876,1.8993296 C10.9297348,1.89912262 10.8889563,1.86631442 10.8514039,1.82993565 C9.60655267,0.62467497 8.02713178,0.00292376731 6.42971597,0.00292376731 C5.3294543,0.00292376731 4.22047238,0.297861001 3.20648055,0.900258484 C0.87656506,2.28539493 -0.363522788,5.01452822 0.0940374699,7.73809864 C0.357156678,9.30326609 1.09852779,10.5969898 2.1704361,11.7069826 C4.19521901,13.8033942 7.69616616,17.4213755 9.62487526,19.4113675 C10.0053396,19.8039013 10.5031994,20 11.001034,20 C11.4981882,20 11.9952667,19.8046775 12.3755546,19.4133856 C14.3555014,17.3765101 17.9977365,13.6142555 20.0992121,11.3862232 C21.5815763,9.81456135 22.2273777,7.87341942 21.9287475,5.66906173 Z" id="路径"></path>
                </g>
            </g>
        </g>
    </g>
</svg>