<?xml version="1.0" encoding="UTF-8"?>
<svg width="24px" height="24px" viewBox="0 0 24 24" version="1.1" xmlns="http://www.w3.org/2000/svg" xmlns:xlink="http://www.w3.org/1999/xlink">
    <title>点赞-灰</title>
    <g id="页面-1" stroke="none" stroke-width="1" fill="none" fill-rule="evenodd">
        <g id="个人主详情" transform="translate(-322, -567)" fill="#999999" fill-rule="nonzero">
            <g id="编组" transform="translate(322, 567)">
                <path d="M11.9960587,22 C11.3339305,22 10.667861,21.6818573 10.0096739,20.9638865 L2.70261553,12.9028375 C1.82766033,11.7119519 1,10.5855546 1,8.40154773 C1,4.87188307 3.63274812,2.00429925 6.86456466,2.00429925 C8.08240772,2.00429925 9.24901467,2.4084265 10.2382658,3.16938953 C10.56933,3.42304389 10.6481548,3.9217541 10.4156216,4.28288911 C10.1830885,4.6440241 9.72590469,4.73000862 9.39484054,4.47635429 C8.65388747,3.90455721 7.77893227,3.60361139 6.86456466,3.60361139 C4.43676101,3.60361139 2.46614116,5.75752368 2.46614116,8.40154776 C2.46614116,9.93637148 2.93120745,10.6543423 3.82192762,11.866724 L11.0541025,19.8331901 C11.4206377,20.2330181 11.7162307,20.3920895 12,20.3963887 C12.2916517,20.4006879 12.5714798,20.2416165 12.9498388,19.8288908 L20.205661,11.8323302 C20.8007882,11.1272571 21.5338588,9.93637145 21.5338588,8.39724851 C21.5338588,5.74892521 19.5592977,3.59931215 17.1354353,3.59931215 C16.0358294,3.59931215 14.9795772,4.04643165 14.1676818,4.85468617 L11.0974561,8.20808256 C10.8097456,8.52192606 10.3486206,8.52192606 10.0609101,8.20808256 C9.77319958,7.89423905 9.77319958,7.39122959 10.0609101,7.07738608 L13.1547832,3.69819433 C14.2622716,2.59329323 15.6692942,2 17.1354353,2 C20.3711931,2 23,4.87188307 23,8.39724849 C23,10.4565778 22.0580437,12.0042992 21.2658545,12.9372313 L13.9863848,20.9595873 C13.3242565,21.6818573 12.6621283,22 11.9960587,22 Z" id="路径"></path>
            </g>
        </g>
    </g>
</svg>