<?xml version="1.0" encoding="UTF-8"?>
<svg width="24px" height="24px" viewBox="0 0 24 24" version="1.1" xmlns="http://www.w3.org/2000/svg" xmlns:xlink="http://www.w3.org/1999/xlink">
    <title>1.Base基础/3.Icon图标/用户/user备份</title>
    <g id="页面-1" stroke="none" stroke-width="1" fill="none" fill-rule="evenodd">
        <g id="钱兜兜2" transform="translate(-64, -55)">
            <g id="编组-4" transform="translate(16, 55)">
                <g id="1.Base基础/3.Icon图标/用户/user备份" transform="translate(48, 0)">
                    <rect id="notification-(Background)" opacity="0" x="0" y="0" width="24" height="24"></rect>
                    <path d="M12.749897,1.5 L11.249897,1.5 L11.249897,3.04119658 C7.8749342,3.41427988 5.24989682,6.27558482 5.24989682,9.75 L5.24989682,16.5 L3.89989692,18.2999997 C3.52907651,18.7944274 3.88186258,19.5 4.49989656,19.5 L8.32491124,19.5 C8.67236352,21.2116799 10.1856794,22.5 11.999897,22.5 C13.814116,22.5 15.3274312,21.2116799 15.6748838,19.5 L19.499897,19.5 C20.1179309,19.5 20.4707179,18.7944274 20.0998964,18.2999997 L18.749897,16.5 L18.749897,9.75 C18.749897,6.27558517 16.1248598,3.41427988 12.749897,3.04119658 L12.749897,1.5 Z M5.99989718,18 L17.999897,18 L17.249897,17 L17.249897,9.75 C17.249897,6.85050523 14.8993921,4.5 11.999897,4.5 C9.10040188,4.5 6.749897,6.85050523 6.749897,9.75 L6.749897,17 L5.99989718,18 Z M9.87792635,19.5 L14.1218684,19.5 C13.8129909,20.3738952 12.9795613,21 11.9998977,21 C11.0202334,21 10.1868031,20.3738952 9.87792635,19.5 Z" id="notification" fill-opacity="0.9" fill="#000000"></path>
                </g>
            </g>
        </g>
    </g>
</svg>