<?xml version="1.0" encoding="UTF-8"?>
<svg width="18px" height="18px" viewBox="0 0 18 18" version="1.1" xmlns="http://www.w3.org/2000/svg" xmlns:xlink="http://www.w3.org/1999/xlink">
    <title>phone</title>
    <g id="页面-1" stroke="none" stroke-width="1" fill="none" fill-rule="evenodd">
        <g id="首页/数字营销平台备份-11" transform="translate(-52, -421)" fill="#000000" fill-rule="nonzero">
            <g id="编组-11" transform="translate(32, 406)">
                <g id="编组-9" transform="translate(20, 14)">
                    <g id="phone" transform="translate(0, 1)">
                        <rect id="矩形" opacity="0" transform="translate(9, 9) scale(-1, 1) translate(-9, -9)" x="0" y="0" width="18" height="18"></rect>
                        <path d="M15.4177734,3.69589844 L13.5457031,1.82558594 C13.3171875,1.59707031 13.0113281,1.46875 12.6878906,1.46875 C12.3644531,1.46875 12.0585938,1.5953125 11.8300781,1.82558594 L9.81386719,3.83828125 C9.58535156,4.06679688 9.45703125,4.37441406 9.45703125,4.69785156 C9.45703125,5.02304688 9.58359375,5.32714844 9.81386719,5.55742188 L11.3888672,7.13417969 C11.0267578,7.97441406 10.5169922,8.72675781 9.87011719,9.371875 C9.225,10.0205078 8.47089844,10.5320312 7.63417969,10.8941406 L6.05917969,9.31738281 C5.83066406,9.08886719 5.52480469,8.96054687 5.20136719,8.96054687 C4.87617188,8.96054687 4.57207031,9.08710938 4.34355469,9.31738281 L2.32558594,11.3300781 C2.09707031,11.5585938 1.96875,11.8662109 1.96875,12.1896484 C1.96875,12.5148438 2.0953125,12.8189453 2.32558594,13.0492187 L4.19589844,14.9195313 C4.58613281,15.3097656 5.12402344,15.5330078 5.67597656,15.5330078 C5.79023438,15.5330078 5.90097656,15.5242187 6.01347656,15.5048828 C8.34082031,15.1216797 10.6505859,13.8824219 12.515625,12.0191406 C14.3789063,10.1523438 15.6164063,7.84257813 16.003125,5.51347656 C16.1138672,4.85253906 15.8923828,4.17226563 15.4177734,3.69589844 Z M14.7568359,5.30429688 C14.4140625,7.37675781 13.2996094,9.44394531 11.6208984,11.1226563 C9.9421875,12.8013672 7.87675781,13.9158203 5.80429688,14.2585938 C5.54414063,14.3025391 5.27695313,14.2146484 5.08710938,14.0265625 L3.25019531,12.1896484 L5.19785156,10.2402344 L7.30371094,12.3496094 L7.31953125,12.3654297 L7.69921875,12.2248047 C10.0318359,11.3652344 11.8634766,9.53359375 12.7212891,7.20097656 L12.8619141,6.82128906 L10.7384766,4.69960937 L12.6861328,2.75019531 L14.5230469,4.58710937 C14.7128906,4.77695313 14.8007812,5.04414062 14.7568359,5.30429688 Z" id="形状" transform="translate(9, 8.5009) scale(-1, 1) translate(-9, -8.5009)"></path>
                    </g>
                </g>
            </g>
        </g>
    </g>
</svg>