<?xml version="1.0" encoding="UTF-8"?>
<svg width="24px" height="24px" viewBox="0 0 24 24" version="1.1" xmlns="http://www.w3.org/2000/svg" xmlns:xlink="http://www.w3.org/1999/xlink">
    <title>钱袋子</title>
    <g id="页面-1" stroke="none" stroke-width="1" fill="none" fill-rule="evenodd">
        <g id="钱兜兜2" transform="translate(-82, -787)" fill-rule="nonzero">
            <g id="钱袋子" transform="translate(82, 787)">
                <path d="M6.5194808,4.8 C6.5194808,4.8 8.91774366,6.7889882 12,6.7889882 C15.0822563,6.7889882 17.54909,4.8 17.54909,4.8 C17.54909,4.8 20.2199217,2.39914194 18.8502204,1.37118341 C17.4788049,0.341508759 15.4251102,1.71440829 15.4251102,1.71440829 C15.4251102,1.71440829 13.8479824,0 12,0 C10.1503033,0 8.64346056,1.71440829 8.64346056,1.71440829 C8.64346056,1.71440829 6.58805158,0.341508759 5.21835034,1.37118341 C3.84864911,2.40085806 6.52119507,4.8 6.52119507,4.8 L6.5194808,4.8 Z M23.3707488,18.0347515 C23.3707488,18.0347515 24.2621689,15.4279585 22.2050456,11.1771183 C20.0142093,6.72034322 17.0690945,6.65169825 17.0690945,6.65169825 C17.0690945,6.65169825 14.876544,8.02288166 12,8.02288166 C9.12345598,8.02288166 6.99947623,6.64998212 6.99947623,6.64998212 C6.99947623,6.64998212 3.98579066,6.64998212 1.79324013,11.2457633 C-0.191883812,15.3593136 0.62925122,18.1033965 0.62925122,18.1033965 C0.62925122,18.1033965 -4.02841868,24 12,24 C28.0284187,24 23.3707488,18.0347515 23.3707488,18.0347515 Z M11.9314292,21.5322131 C8.71203133,21.5322131 6.10977042,18.9254201 6.10977042,15.7711834 C6.10977042,12.6169467 8.71203133,10.0118699 11.9314292,10.0118699 C15.1508271,10.0118699 17.753088,12.6169467 17.753088,15.7711834 C17.753088,18.9254201 15.1508271,21.5322131 11.9314292,21.5322131 Z" id="形状" fill="#FA6402"></path>
                <polygon id="路径" fill="#EEC8A1" points="8.30060668 15.4966035 12.0685708 19.268645 15.8365349 15.4966035 12.0685708 11.7262782"></polygon>
            </g>
        </g>
    </g>
</svg>