<?xml version="1.0" encoding="UTF-8"?>
<svg width="18px" height="18px" viewBox="0 0 18 18" version="1.1" xmlns="http://www.w3.org/2000/svg" xmlns:xlink="http://www.w3.org/1999/xlink">
    <title>shake</title>
    <g id="页面-1" stroke="none" stroke-width="1" fill="none" fill-rule="evenodd">
        <g id="首页/数字营销平台备份-11" transform="translate(-52, -485)" fill="#000000" fill-rule="nonzero">
            <g id="编组-11" transform="translate(32, 406)">
                <g id="编组-5" transform="translate(0, 64)">
                    <g id="编组-8" transform="translate(20, 14)">
                        <g id="shake" transform="translate(0, 1)">
                            <rect id="矩形" opacity="0" x="0" y="0" width="18" height="18"></rect>
                            <path d="M5.6953125,11.7070312 C5.6953125,12.1730215 6.07307224,12.5507812 6.5390625,12.5507812 C7.00505276,12.5507812 7.3828125,12.1730215 7.3828125,11.7070312 C7.3828125,11.241041 7.00505276,10.8632812 6.5390625,10.8632812 C6.07307224,10.8632812 5.6953125,11.241041 5.6953125,11.7070312 Z M16.5357422,6.26484375 L11.7351563,1.4625 C11.5171875,1.24628906 11.2271484,1.125 10.9177734,1.125 C10.6083984,1.125 10.3183594,1.24453125 10.1003906,1.4625 L1.46425781,10.0986328 C1.0125,10.5503906 1.0125,11.2833984 1.46425781,11.7351562 L6.26660156,16.5375 C6.4828125,16.7537109 6.77460938,16.875 7.08398438,16.875 C7.39335938,16.875 7.68339844,16.7554688 7.90136719,16.5375 L16.5375,7.90136719 C16.9875,7.44960937 16.9875,6.71484375 16.5357422,6.26484375 Z M7.08398438,15.4705078 L2.52949219,10.9160156 L10.9177734,2.52773438 L15.4705078,7.08398438 L7.08398438,15.4705078 Z M2.6859375,6.56894531 C2.74042969,6.6234375 2.82832031,6.6234375 2.8828125,6.56894531 L6.56894531,2.8828125 C6.6234375,2.82832031 6.6234375,2.74042969 6.56894531,2.6859375 L5.89394531,2.0109375 C5.83945312,1.95644531 5.7515625,1.95644531 5.69707031,2.0109375 L2.00917969,5.69355469 C1.9546875,5.74804687 1.9546875,5.8359375 2.00917969,5.89042969 L2.6859375,6.56894531 Z M15.3175781,11.4310547 C15.2630859,11.3765625 15.1751953,11.3765625 15.1207031,11.4310547 L11.4310547,15.1189453 C11.3765625,15.1734375 11.3765625,15.2613281 11.4310547,15.3158203 L12.1060547,15.9908203 C12.1605469,16.0453125 12.2484375,16.0453125 12.3029297,15.9908203 L15.9908203,12.3046875 C16.0453125,12.2501953 16.0453125,12.1623047 15.9908203,12.1078125 L15.3175781,11.4310547 Z" id="形状" transform="translate(9.0001, 9) scale(-1, 1) translate(-9.0001, -9)"></path>
                        </g>
                    </g>
                </g>
            </g>
        </g>
    </g>
</svg>