<?xml version="1.0" encoding="UTF-8"?>
<svg width="24px" height="24px" viewBox="0 0 24 24" version="1.1" xmlns="http://www.w3.org/2000/svg" xmlns:xlink="http://www.w3.org/1999/xlink">
    <title>1.Base基础/3.Icon图标/用户/user</title>
    <g id="页面-1" stroke="none" stroke-width="1" fill="none" fill-rule="evenodd">
        <g id="钱兜兜2" transform="translate(-16, -55)">
            <g id="编组-4" transform="translate(16, 55)">
                <g id="1.Base基础/3.Icon图标/用户/user" transform="translate(-0, 0)">
                    <polygon id="Rectangle-4117" opacity="0" transform="translate(12, 12) rotate(0) translate(-12, -12)" points="4.19629313e-06 4.19629313e-06 24.0000042 4.19629313e-06 24.0000042 24.0000042 4.19629313e-06 24.0000042"></polygon>
                    <path d="M12.0000084,12.75 C9.10051327,12.75 6.75000839,10.3994951 6.75000839,7.49999964 C6.75000839,4.60050452 9.10051327,2.25 12.0000084,2.25 C14.8995035,2.25 17.2500084,4.60050452 17.2500084,7.49999964 C17.2500084,10.3994951 14.8995035,12.75 12.0000084,12.75 Z M12.0000084,11.25 C9.92893963,11.25 8.25000839,9.57106733 8.25000839,7.49999964 C8.25000839,5.42893159 9.92893963,3.75 12.0000084,3.75 C14.0710757,3.75 15.7500084,5.42893159 15.7500084,7.49999964 C15.7500084,9.57106805 14.0710757,11.25 12.0000084,11.25 Z M21.7500084,17.5869427 L21.7500084,21 C21.7500084,21.4142132 21.4142216,21.75 21.0000084,21.75 L3.00001036,21.75 C2.58579678,21.75 2.25000839,21.4142132 2.25000839,21 L2.25000839,17.5869427 C2.25000839,17.0319843 2.55453228,16.5183392 3.05530472,16.2791619 C5.77411302,14.9806137 8.79977183,14.25 12.0000091,14.25 C15.2002457,14.25 18.2259048,14.9806137 20.9447134,16.2791619 C21.4454854,16.5183392 21.7500084,17.0319843 21.7500084,17.5869427 Z M20.2500084,17.6097465 L20.2500084,20.25 L3.75000839,20.25 L3.75000839,17.6097465 C6.26152592,16.418591 9.0501142,15.75 12.0000091,15.75 C14.9499033,15.75 17.7384923,16.418591 20.2500084,17.6097465 Z" id="Union" fill-opacity="0.9" fill="#000000"></path>
                </g>
            </g>
        </g>
    </g>
</svg>